<?xml version="1.0" standalone="no"?><!DOCTYPE svg PUBLIC "-//W3C//DTD SVG 1.1//EN" "http://www.w3.org/Graphics/SVG/1.1/DTD/svg11.dtd"><svg t="1661932716854" class="icon" viewBox="0 0 1024 1024" version="1.1" xmlns="http://www.w3.org/2000/svg" p-id="4395" xmlns:xlink="http://www.w3.org/1999/xlink" width="64" height="64"><path d="M678.2 381.4l264.9-66.2c27.8 61.5 42.2 128.2 42.2 195.7 0 260.2-214.2 474.4-474.6 474.4-11.9 0-23.9-0.4-35.8-1.3l193.5-329.2c14-14.8 25.8-31.7 34.7-50.1 28.1-59.4 27.5-128.4-1.7-187.3-6.4-12.8-14.2-24.8-23.2-36zM550.4 719.7l-83.7 263.6c-241.1-23.8-428-229.1-428-472.2 0-94.1 28-186.1 80.4-264.2l190.7 330.4c7.1 21.3 44.1 101.8 121 131.2 39.3 15.1 80.4 19 119.6 11.2z m-39.5-380.5c-79.1 0.7-153 60.9-168.9 138.5-11.3 57.8 7 117.5 48.8 159 47.9 46.8 123.9 62.2 186.7 36.6 55.5-22.7 97.4-76 106.1-135.3 10.7-73.2-31.1-151.2-98.4-182.6-23.2-10.8-48.6-16.3-74.3-16.2z m-194.3 92.4L127.8 234.4C217.1 111.5 359.9 38.7 511.9 38.7c179.9 0 344.9 102.2 425 263.3H534c-71.4-4.9-129.7 20.5-168.2 57.3-21.3 20.4-38 45-49.2 72.3z m0 0" p-id="4396" fill="#ffffff"></path></svg>